<?xml version="1.0" encoding="UTF-8" standalone="no"?>
<!-- Created with Inkscape (http://www.inkscape.org/) -->
<svg id="svg2" xmlns:rdf="http://www.w3.org/1999/02/22-rdf-syntax-ns#" xmlns="http://www.w3.org/2000/svg" height="75.816" width="163.45" version="1.1" xmlns:cc="http://creativecommons.org/ns#" xmlns:dc="http://purl.org/dc/elements/1.1/" viewBox="0 0 163.44866 75.81586">
 <metadata id="metadata7">
  <rdf:RDF>
   <cc:Work rdf:about="">
    <dc:format>image/svg+xml</dc:format>
    <dc:type rdf:resource="http://purl.org/dc/dcmitype/StillImage"/>
    <dc:title/>
   </cc:Work>
  </rdf:RDF>
 </metadata>
 <g id="layer1" transform="translate(-109.72 -73.984)">
  <flowRoot id="flowRoot4231" style="word-spacing:0px;letter-spacing:0px" xml:space="preserve" transform="translate(62.375 -504.59)" line-height="125%" font-size="60px" font-family="Vemana2000" fill="#fb0000"><flowRegion id="flowRegion4233"><rect id="rect4235" height="70.714" width="132.14" y="804.51" x="223.21" fill="#fb0000"/></flowRegion><flowPara id="flowPara4237">CS6</flowPara></flowRoot>
  <path id="path4207" d="m153.07 134.17-14.597-0.0945 13.666-32.178 19.925 47.267-13.037 0.055zm-43.345-59.979 31.306 0.1074-31.283 74.853zm53.467 0.03072 31.286-0.0088-0.009 74.888z" fill="#ec1b23"/>
  <g id="g4328" transform="translate(60.375 -504.59)">
   <path id="path4267" d="m150.71 599.51h-6.3888l-1.0082 4.4349h-4.1071l5.8688-24.343h4.8712l5.8688 24.343h-4.1071l-0.99759-4.4349zm-5.37-4.5164h4.3405l-2.165-9.6851-2.1756 9.6851z"/>
   <path id="path4269" d="m161.18 585.25q2.3878 0 3.916 3.1142v-9.7829h3.8205v25.37h-3.8205v-2.6414q-0.71104 1.4674-1.645 2.299-0.92329 0.81524-2.2711 0.81524-2.2393 0-3.6295-2.6903-1.3903-2.6903-1.3903-6.897t1.3903-6.897q1.3902-2.6903 3.6295-2.6903zm-1.0825 9.5873q0 1.3207 0.1698 2.3153 0.1698 0.99459 0.41388 1.5653 0.25471 0.55436 0.60493 0.91307 0.35021 0.34239 0.65797 0.45653 0.30777 0.0978 0.64737 0.0978 1.2947 0 1.8996-1.4348 0.60492-1.4511 0.60492-3.9132 0-1.1903-0.13796-2.136-0.13796-0.94568-0.4245-1.6794-0.28655-0.73372-0.78533-1.125-0.48818-0.40762-1.1568-0.40762-1.2841 0-1.889 1.4511-0.60491 1.4348-0.60491 3.8969z"/>
   <path id="path4271" d="m180.08 594.83q0-2.4783-0.62615-3.9458-0.61553-1.4674-1.9315-1.4674-1.3266 0-1.9633 1.4674-0.62614 1.4674-0.62614 3.9458 0 2.4783 0.62614 3.9458 0.62615 1.4674 1.9633 1.4674 1.316 0 1.9315-1.4674 0.62615-1.4674 0.62615-3.9458zm-9.1056 0q0-4.5328 1.7299-7.06 1.7298-2.5273 4.8181-2.5273 3.0777 0 4.7969 2.5273 1.7192 2.5272 1.7192 7.06t-1.7192 7.06-4.7969 2.5272q-3.0776 0-4.8181-2.5272-1.7299-2.5272-1.7299-7.06z"/>
   <path id="path4273" d="m189.88 594.83q0 2.4457 0.61553 3.8969 0.61553 1.4511 1.9103 1.4511 1.2947 0 1.8997-1.4348 0.60491-1.4511 0.60491-3.9132 0-1.1903-0.13796-2.136-0.13796-0.94568-0.4245-1.6794t-0.78533-1.125q-0.48819-0.40762-1.1568-0.40762-1.2947 0-1.9103 1.4511-0.61553 1.4511-0.61553 3.8969zm3.9373 9.5872q-1.3372 0-2.2711-0.81524-0.93391-0.83154-1.6662-2.299v2.6414h-3.7993v-25.37h3.7993v9.7829q0.72165-1.4674 1.6556-2.2827 0.93391-0.83155 2.2817-0.83155 2.2392 0 3.6295 2.6903 1.3902 2.6903 1.3902 6.897 0 4.2066-1.3902 6.897-1.3902 2.6903-3.6295 2.6903z"/>
   <path id="path4275" d="m206.63 585.25q2.7911 0 4.4785 2.5762 1.6874 2.5599 1.6874 6.9459v1.6631h-8.8827q0.27593 4.1088 3.2793 4.1088 2.3984 0 5.041-2.2012v4.5001q-2.7487 1.5816-5.3912 1.5816-3.205 0-5.0091-2.4783-1.7935-2.4946-1.7935-7.1089 0-4.5002 1.7511-7.0437 1.7617-2.5436 4.8393-2.5436zm2.2605 7.5818q0-1.6794-0.62614-2.6903t-1.6556-1.0109q-1.1462 0-1.8254 0.9946-0.66859 0.97829-0.82778 2.7066h4.9348z"/>
  </g>
  <g id="g4323" transform="matrix(1.7081 0 0 1.7081 -39.877 -953.37)">
   <path id="path4277" d="m149.1 641.28q2.3772 0 4.5634-2.299v5.0382q-2.2605 1.8098-4.8924 1.8098-3.9797 0-6.2826-3.3751-2.3029-3.3914-2.3029-9.2449 0-5.8534 2.2923-9.2449 2.3029-3.3914 6.2933-3.3914 2.6319 0 4.8924 1.8098v5.0382q-2.2074-2.299-4.5634-2.299-2.2286 0-3.4597 2.1849-1.2311 2.1685-1.2311 5.9024 0 3.7338 1.2311 5.9024t3.4597 2.1686z"/>
   <path id="path4279" d="m161.82 620.57q2.6319 0 5.5398 1.2066v5.1523q-2.6319-1.8098-4.8924-1.8098-1.5494 0-2.2074 0.6685-0.65798 0.6522-0.65798 1.8751 0 1.0272 0.50941 1.5653 0.5094 0.52176 1.6768 0.89676l1.7405 0.53807q2.547 0.78264 3.7038 2.4294 1.1674 1.6305 1.1674 4.7773 0 4.174-1.6131 6.0654t-4.6908 1.8914q-3.0034 0-6.0598-1.7446v-5.2991q3.0776 2.4946 5.6671 2.4946 0.8384 0 1.4115-0.24458 0.58369-0.26088 0.85962-0.6848 0.27592-0.44024 0.38205-0.84786t0.10613-0.86415q0-1.2229-0.55186-1.8262-0.54124-0.60328-1.8572-1.0435l-1.5813-0.53806q-2.2499-0.73372-3.4173-2.3968-1.1568-1.6631-1.1568-4.7121 0-3.7664 1.5707-5.6578t4.3512-1.8914z"/>
   <path id="path4281" d="m179.29 637.61q0-4.2719-2.1544-4.2719-2.1437 0-2.1437 4.2719t2.1437 4.2719q2.1544 0 2.1544-4.2719zm-1.2629-17.006q2.1544 0 4.1601 1.0435v4.5002q-1.9633-1.4348-3.6401-1.4348-1.8784 0-2.876 1.5979-0.99758 1.5979-1.1568 4.5817 1.4115-1.5979 3.3005-1.5979 2.4515 0 3.9266 2.1848 1.4858 2.1685 1.4858 5.723 0 3.9621-1.6768 6.2937-1.6662 2.3316-4.4573 2.3316-1.6237 0-2.8654-0.88046-1.2417-0.88047-2.027-2.511-0.78533-1.6468-1.1886-3.8806-0.39267-2.2338-0.39267-5.0219 0-3.9295 0.84901-6.8154 0.849-2.9023 2.5258-4.5001 1.6874-1.6142 4.0328-1.6142z"/>
  </g>
 </g>
</svg>
